<svg height="480pt" viewBox="0 -63 480 480" width="480pt" xmlns="http://www.w3.org/2000/svg" xmlns:xlink="http://www.w3.org/1999/xlink"><linearGradient id="a"><stop offset=".322" stop-color="#a163f5"/><stop offset=".466" stop-color="#b074ee"/><stop offset=".752" stop-color="#d8a1dd"/><stop offset=".898" stop-color="#efbad3"/></linearGradient><linearGradient id="b" gradientTransform="matrix(1 0 0 -1 -16 435)" gradientUnits="userSpaceOnUse" x1="159.4" x2="159.4" xlink:href="#a" y1="-54" y2="536.979"/><linearGradient id="c" gradientTransform="matrix(1 0 0 -1 -16 435)" gradientUnits="userSpaceOnUse" x1="256" x2="256" xlink:href="#a" y1="-54" y2="536.979"/><linearGradient id="d" gradientTransform="matrix(1 0 0 -1 -16 435)" gradientUnits="userSpaceOnUse" x1="363.15" x2="363.15" xlink:href="#a" y1="-54" y2="536.979"/><path d="m143.398438 173c28.554687 0 51.703124-23.148438 51.703124-51.699219 0-28.554687-23.148437-51.699219-51.703124-51.699219-28.550782 0-51.699219 23.144532-51.699219 51.699219.039062 28.535157 23.164062 51.660157 51.699219 51.699219zm0-83.300781c17.507812 0 31.703124 14.191406 31.703124 31.699219 0 17.507812-14.195312 31.703124-31.703124 31.703124-17.507813 0-31.699219-14.195312-31.699219-31.703124.007812-17.503907 14.195312-31.691407 31.699219-31.699219zm0 0" fill="url(#b)"/><path d="m143.398438 192.101562c-21.152344-.15625-41.453126 8.332032-56.199219 23.5-15 15.296876-23.199219 36.097657-23.199219 58.699219.015625 5.515625 4.484375 9.984375 10 10h138.800781c5.515625-.015625 9.984375-4.484375 10-10 0-22.601562-8.199219-43.402343-23.199219-58.699219-14.746093-15.167968-35.046874-23.65625-56.203124-23.5zm-58.699219 72.199219c1.714843-13.074219 7.605469-25.246093 16.800781-34.699219 11.066406-11.199218 26.15625-17.5 41.898438-17.5 15.746093 0 30.835937 6.300782 41.902343 17.5 9.175781 9.464844 15.066407 21.628907 16.800781 34.699219zm0 0" fill="url(#b)"/><path d="m430 0h-380c-27.609375.0117188-49.9882812 22.390625-50 50v254c.0117188 27.609375 22.390625 49.988281 50 50h380c27.609375-.011719 49.988281-22.390625 50-50v-254c-.011719-27.609375-22.390625-49.9882812-50-50zm30 304c-.046875 16.546875-13.453125 29.953125-30 30h-380c-16.546875-.046875-29.953125-13.453125-30-30v-254c.046875-16.546875 13.453125-29.953125 30-30h380c16.546875.046875 29.953125 13.453125 30 30zm0 0" fill="url(#c)"/><g fill="url(#d)"><path d="m405.398438 167h-116.5c-5.519532 0-10 4.476562-10 10s4.480468 10 10 10h116.5c5.523437 0 10-4.476562 10-10s-4.476563-10-10-10zm0 0"/><path d="m405.398438 231h-116.5c-5.519532 0-10 4.476562-10 10s4.480468 10 10 10h116.5c5.523437 0 10-4.476562 10-10s-4.476563-10-10-10zm0 0"/><path d="m405.398438 103h-116.5c-5.519532 0-10 4.476562-10 10s4.480468 10 10 10h116.5c5.523437 0 10-4.476562 10-10s-4.476563-10-10-10zm0 0"/></g></svg>